<svg width="28" height="22" viewBox="0 0 28 22" fill="none" xmlns="http://www.w3.org/2000/svg">
<g id="Group 1975">
<rect id="Rectangle 1142" width="28" height="22" rx="10" transform="matrix(-1 0 0 1 28 0)" fill="#F58216"/>
<g id="Group">
<g id="Group_2">
<path id="Vector" d="M16.2715 6.11704C14.1967 4.39574 10.8319 4.39574 8.75715 6.11704C6.68238 7.83834 6.68237 10.6298 8.75715 12.3511C10.5951 13.876 13.4457 14.0481 15.5137 12.8713L18.1004 15.2717C18.5402 15.6815 19.3047 15.6983 19.7715 15.311L19.8392 15.2549C20.306 14.8676 20.2857 14.2333 19.7918 13.8685L16.8984 11.7225C18.3192 10.0049 18.1094 7.64188 16.2715 6.11704ZM14.9815 11.2809C13.6194 12.411 11.4093 12.411 10.0471 11.2809C8.68499 10.1509 8.68499 8.31731 10.0471 7.18724C11.4093 6.05717 13.6194 6.05717 14.9815 7.18724C16.3459 8.31918 16.3436 10.1509 14.9815 11.2809Z" fill="#FEFDFE"/>
</g>
</g>
</g>
</svg>
